<svg xmlns="http://www.w3.org/2000/svg" xmlns:xlink="http://www.w3.org/1999/xlink" viewBox="0,0,256,256" width="250px" height="250px" fill-rule="nonzero"><g fill="none" fill-rule="nonzero" stroke="none" stroke-width="none" stroke-linecap="butt" stroke-linejoin="miter" stroke-miterlimit="10" stroke-dasharray="" stroke-dashoffset="0" font-family="none" font-weight="none" font-size="none" text-anchor="none" style="mix-blend-mode: normal"><g transform="scale(10.66667,10.66667)"><path d="M6,5h-2v14h2" fill="none" stroke="#d4c4a1" stroke-width="2"></path><path d="M18,19h2v-14h-2" fill="none" stroke="#d4c4a1" stroke-width="2"></path><path d="M16.975,15h-1.804v-4.152c-0.042,-0.622 -0.327,-0.939 -0.899,-1.001c-0.648,-0.071 -1.126,0.217 -1.274,0.805c-0.066,0.262 -0.092,0.539 -0.095,0.81c-0.011,1.05 -0.005,3.523 -0.005,3.523h-1.81c0,0 -0.002,-3.908 -0.007,-4.034c-0.03,-0.724 -0.309,-1.058 -0.922,-1.108c-0.644,-0.052 -1.184,0.336 -1.316,0.964c-0.043,0.205 -0.052,0.418 -0.053,0.627c-0.005,1.175 -0.002,3.554 -0.002,3.554h-1.788v-6.347h1.682c0,0 0,0.491 0,0.838c0.568,-0.678 1.201,-1.049 2.019,-1.036c0.807,0.014 1.514,0.221 1.905,0.998c0.257,-0.219 0.48,-0.447 0.74,-0.626c1.077,-0.739 2.857,-0.386 3.389,0.681c0.137,0.275 0.233,0.6 0.239,0.903c0.029,1.482 0.001,4.601 0.001,4.601z" fill="#d4c4a1" stroke="none" stroke-width="1"></path></g></g></svg>